<?xml version="1.0" encoding="utf-8"?>

<!DOCTYPE svg PUBLIC "-//W3C//DTD SVG 1.1//EN" "http://www.w3.org/Graphics/SVG/1.1/DTD/svg11.dtd">
<svg version="1.1" id="Layer_1" xmlns="http://www.w3.org/2000/svg" xmlns:xlink="http://www.w3.org/1999/xlink" x="0px" y="0px"
	 viewBox="0 0 1475.243 1726.304" enable-background="new 0 0 1475.243 1726.304" xml:space="preserve">
<path d="M1370.876,305.434c0,0-35.697-44.799-85.708-74.257c-4.163-2.296-7.107-6.167-10.854-9.011
	c-5.234-3.506-11.087-9.611-26.057-17.569c-18.323-9.739-35.931-20.734-54.148-30.65c-19.418-10.569-40.268-18.831-59.117-30.302
	c-2.384-0.884-4.86-1.5-7.331-2.029c-4.96-2.396-9.291-5.95-14.419-8.01c-2.197-1.276-4.854-1.487-6.865-3.062
	c-2.651-2.035-6.018-2.589-8.924-4.114c-3.915-1.413-7.337-4.095-11.532-4.674c-8.948-4.941-26.07-10.362-26.698-10.654
	c-40.675-17.318-69.563-20.284-83.542-25.895c-2.651-1.064-5.638-0.019-8.258-1.157c-27.966-10.419-204.708-48.529-233.358-36.158
	c-6.685,3.022-46.653,1.31-55.522,1.732c-95.572,4.55-134.043,25.901-170.093,35.926c-29.874,8.307-44.691,14.488-44.691,14.488
	c-2.166,1.867-4.966,2.539-7.524,3.666c-3.813,2.092-5.041,4.867-16.268,8.65c-5.109,2.34-9.46,6.037-14.538,8.445
	c-5.197,3.074-10.847,5.234-16.125,8.159c-42.017,23.287-37.492,23.335-58.587,42.219c-24.591,16.931-44.195,42.833-65.24,55.537
	c-2.897,1.749-22.651,19.3-31.402,30.119c-27.414,33.894-66.002,58.888-90.539,95.033c-2.315,3.41-4.537,6.939-7.661,9.696
	c-2.081,1.607-0.166,3.331-4.232,7.051c-38.806,31.1-84.578,116.499-101.898,160.099c-3.245,8.169-3.576,16.884-5.545,25.349
	c-1.506,6.473-5.84,13.642-5.318,20.284c0.651,8.286,11.673,9.692,17.624,13.068c8.958,5.327,30.746,15.046,47.366,19.1
	l-0.758,0.429c361.486,741.828,328.94,666.745,339.648,717.197c0.45,2.118,1.411-2.538-9.056,35.756
	c-1.688,6.177-3.444,13.298-5.093,15.626c-19.544,23.401-11.517,20.12-10.686,26.592c-1.834,5.179-3.349,2.823-2.01,9.964
	c0.33,1.606,0.019,3.361,0.909,4.836c0.554,1.313,1.873,1.985,2.838,2.969c0.411,1.095-0.342,2.172-0.79,3.149
	c-5.065,8.079-7.985,17.433-8.968,19.66c-1.631,3.74-1.693,8.059-4.101,11.476c-1.711,2.421-1.848,5.489-3.056,8.14
	c-2.173,4.762-5.969,16.174-1.5,19.33c1.948,1.114,4.139,1.929,5.589,3.759c2.745,3.323,7.4,3.385,11.015,5.265
	c-0.442,1.226-1.095,2.483-0.809,3.852c0.467,2.421-1.543,4.599-0.815,7.032c1.269,4.999-1.708,0.966-4.444,13.386
	c-0.336,1.991,1.419,4.313-0.156,6.049c-3.435,3.653-6.883,7.686-11.743,9.441c-10.449,6.388-32.85,36.14-33.065,40.346
	c-0.062,3.286-3.342,4.929-4.499,7.748c-0.517-0.398-1.039-0.803-1.556-1.139c-0.566,1.226-1.07,2.496-1.537,3.784
	c-3.174,0.996-6.348,2.153-9.715,2.197c-2.844,0.012-5.981,1.581-6.584,4.574c-0.498,2.471-1.089,5.028-0.66,7.574
	c1.129,6.185-3.84,15.107-1.855,19.162c5.082,9.208,12.822,13.884,16.33,13.505c4.942-6.518,2.449-6.619,3.715-12.279
	c0.797-2.85,0.025-5.887,1.126-8.663c0.828-3.865,3.112-7.138,4.817-10.605c0.311-2.85,2.539-4.804,3.361-7.449
	c5.029-8.972,7.677-6.412,21.135-19.834c12.986-9.596,12.441-11.282,15.585-11.472c0.754-0.046,1.534,0.075,2.25-0.167
	c1.253-0.423,1.984-1.857,2.796-2.817c1.087-1.284,2.456-2.425,3.428-3.797c1.002-1.413,2.514-2.178,4.232-2.222
	c0.69-0.018-0.742,5.912-1.042,6.408c-3.42,5.669-11.345,9.654-18.93,14.999c-0.843,0.594-3.144,1.513-3.332,2.562
	c-0.171,0.955,1.157,2.075,1.658,2.793c0.96,1.377,1.865,2.816,2.814,4.206c2.013,2.949,7.518,8.548-2.496,13.94
	c-1.475,0.261-2.614-0.884-3.684-1.693c-0.156,0.734-0.23,1.525-0.629,2.216c-7.748,2.324-10.052-0.78-14.295,0.635
	c-1.898,4.73-0.722,9.789,0.523,14.507c-0.311,5.464,1.842,10.648,2.645,16c5.113,25.588,18.856,22.224,16.654,14.009
	c-1.188-5.543-0.054-14.931,3.093-19.025c1.475-1.755,1.4-4.207,2.651-6.08c1.033-1.35,0.392-2.975-0.019-4.394
	c2.657-3.578,5.141-7.393,8.831-10.026c0.54-0.385,3.139,1.463,3.598,1.781c1.006,0.697,1.638,1.681,2.99,0.663
	c1.2-0.904,2.018-2.639,3.127-3.732c1.799-1.774,2.695-4.307,4.817-5.769c2.489-1.861,4.518-4.207,6.441-6.622
	c2.11-1.748,4.987-2.954,7.368-4.275c1.898-1.052,3.805-2.089,5.734-3.083c1.535-0.791,4.633-1.426,5.512-2.878
	c1.041-1.719-0.404-5.002-0.454-6.941c1.431-3.896,5.277-6.031,7.947-8.974c2.359-2.01,3.031-5.172,4.935-7.512
	c1.506-1.855,2.097-4.201,2.993-6.354c1.823-3.485,4.954-6.628,4.748-10.816c0.119-5.322,6.491-17.843,6.759-22.466
	c0.05-2.166,1.531-3.852,2.296-5.775c2.041-4.643,2.881-9.684,4.132-14.563c1.487-5.06,6.205-8.022,8.601-12.559
	c4.431-5.881,7.3-12.783,12.048-18.427c7.372-8.862,9.631-20.912,10.841-29.623c0.218-3.61,3.61-5.819,6.292-7.711
	c0.946,0.772,1.842,1.618,2.651,2.558c2.054,2.52,5.309,3.442,8.022,5.066c1.512,1.189,3.429-0.38,5.022,0.554
	c6.203,2.557,24.777,2.255,29.561,1.88c4.338-0.99,8.731-1.948,13.218-1.711c1.88,0.199,2.608-2.29,4.456-2.365
	c11.746-0.264,11.116-4.416,15.017-6.155c1.973-0.156,5.047,1.662,6.062-0.79c0.94-2.433,0.691-5.184,1.742-7.592
	c1.421-2.41,0.029-9.002-7.306-8.62c0.429-2.359,1.861-5.01-0.068-7.057c-1.102,0.993-2.179,2.018-3.235,3.075
	c-25.121-48.046-11.283-21.575-21.515-41.172c-1.499-2.872-1.744-2.282-0.854-4.425c0.626-1.507,16.216-39.037,17.319-41.692
	c4.009-4.566-29.303,29.975,520.589-537.903l238.19-210.733c1.09,0.815,1.716,1.271,1.716,1.271
	c3.541,1.294,7.369,1.406,10.897,2.72c2.533,0.249,5.34,0.56,7.648-0.797c1.361-0.634,21.87-9.552,28.056-17.999
	c6.744-10.114,14.894-10.572,26.512-42.97C1456.619,429.801,1405.444,331.982,1370.876,305.434z M796.602,255.363
	c5.074-0.706,10.208-1.381,15.398-2.024l0.061,0.94L761.93,456.389l-15.273-82.071L796.602,255.363z M746.035,370.976l-6.403-34.408
	l36.484-78.147c6.014-0.96,12.128-1.881,18.335-2.758L746.035,370.976z M915.032,245.718l-12.602,60.192l-18.181,38.95l5.98-46.657
	l21.522-52.402C912.845,245.772,913.938,245.744,915.032,245.718z M889.656,294.684l-8.891-47.582
	c9.556-0.548,19.213-0.968,28.946-1.247L889.656,294.684z M888.375,297.988l-6.72,52.43l-97.779,209.477l33.389-253.484
	l17.728-55.665c14.316-1.455,28.979-2.65,43.893-3.533L888.375,297.988z M987.337,246.819c11.591,0.644,23.196,1.528,34.776,2.67
	l-34.776,73.701V246.819z M985.47,294.276l-39.264,64.241l30.667-112.215c2.864,0.124,5.73,0.263,8.597,0.416V294.276z
	 M985.47,297.856v29.408l-36.37,186.37c-131.636,303.991-85.19,204.836-203.698,434.877l0.156-4.23
	c0.046-0.106,108.814-249.786,108.86-249.891l90.019-329.397L985.47,297.856z M605.127,1290.153l19.033-45.816l419.509-682.341
	l32.916-32.916l71.557-26.24C565.306,1350.163,619.306,1272.566,605.127,1290.153z M573.072,1332.888l2.527-3.135l-3.334,7.654
	L573.072,1332.888z M573.754,1329.067l0.435-2.435c5.749-10.6,3.235-6.279,11.025-18.949l-6.795,15.598L573.754,1329.067z
	 M843.504,762.159l75.847-75.846l-270.779,499.259l96.591-232.519L843.504,762.159z M632.986,1218.223
	c-13.217,31.817-5.505,17.146-35.457,65.864C599.075,1280.539,594.793,1288.642,632.986,1218.223z M923.991,681.672l113.987-113.987
	l-409.253,665.661C646.499,1190.56,607.11,1265.933,923.991,681.672z M743.388,952.457
	c-121.513,292.511-94.149,231.883-136.108,309.246l136.237-312.737L743.388,952.457z M575.342,1320.176
	c4.274-23.938-15.817,36.29,172.767-495.585l-4.403,119.268C597.671,1279.088,595.59,1287.241,575.342,1320.176z M617.927,1254.474
	l-16.97,40.851l-18.107,22.46C594.627,1290.749,587.064,1304.673,617.927,1254.474z M1058.992,544.031l36.85-88.259l-24.017,75.426
	L1058.992,544.031z M1166.427,439.922l26.719-12.73l-43.209,73.002l-70.176,25.733L1166.427,439.922z M1151.171,501.729
	l66.836-24.508l77.793,12.228c-0.112,0.094-141.094,119.062-141.206,119.157l-524.106,650.089L1151.171,501.729z M1221.025,475.805
	l74.196-35.561c1.15,17.869,1.083,34.431,1.154,47.405L1221.025,475.805z M1152.704,499.178l43.461-73.426l89.98-42.871
	c5.17,18.148,7.697,37.361,8.942,55.356C1199.883,483.868,1232.341,469.976,1152.704,499.178z M1170.134,436.087l61.774-88.107
	c-3.542,14.167,2.465,1.041-37.079,76.342L1170.134,436.087z M1168.343,435.39c-2.253,2.236-92.489,91.779-93.643,92.933
	c36.945-116.027,16.801-62.155,89.129-235.386l12.121-9.382c25.433,9.572,52.744,22.415,72.256,37.927L1168.343,435.39z
	 M1165.286,289.449l3.551-8.505c1.673,0.599,3.359,1.214,5.055,1.844L1165.286,289.449z M1162.297,291.762l-16.285,12.606
	l8.966-28.157c3.92,1.275,7.965,2.644,12.098,4.106L1162.297,291.762z M1160.841,295.25l-50.242,120.335l34.416-108.084
	L1160.841,295.25z M1055.52,547.504l-128.4,128.4c0.088-0.163,94.61-174.44,94.698-174.602l32.309-123.448l88.286-68.34
	C1093.202,464.064,1113.021,409.782,1055.52,547.504z M1020.069,500.609l-97.59,179.935l-76.936,76.936l105.266-243.093
	l100.401-132.759L1020.069,500.609z M852.652,693.768L745.747,939.173l4.448-120.464l114.768-323.687l75.973-124.301
	L852.652,693.768z M863.202,494.402L750.424,812.474l5.466-148.059c29.653-105.152,26.469-93.005,27.176-98.37l97.809-209.541
	L863.202,494.402z M762.326,458.515l0.943,0.234l49.19-198.317l2.955,45.744l-34.675,263.247l-24.555,87.076
	C764.228,438.594,763.895,466.949,762.326,458.515z M816.963,301.208l-3.02-46.761l0.345-1.389
	c6.154-0.749,12.383-1.452,18.681-2.105L816.963,301.208z M761.426,463.883l-7.393,200.24L586.24,1259.136
	c168.222-942.184,154.751-871.323,159.101-881.684L761.426,463.883z M753.741,672.038l-5.402,146.317l-167.996,473.808
	C583.984,1271.772,566.947,1334.43,753.741,672.038z M573.128,1312.513l4.595-16.293
	C576.212,1304.679,577.202,1301.022,573.128,1312.513z M574.514,1314.189l-1.845,10.334l-4.297,6.99L574.514,1314.189z
	 M570.482,1332.776c0,0,0.88-0.931,0.88-0.931c-3.141,17.592-1.647,11.179-5.428,16.688c-1.344,1.892-2.863,3.771-5.035,4.761
	C562.617,1348.191,569.426,1334.696,570.482,1332.776z M580.03,1324.257l18.377-22.795c-0.866,2.083,1.962-2.275-23.723,35.066
	L580.03,1324.257z M594.346,1311.238l-1.271,3.058l-2.877,2.971L594.346,1311.238z M1155.935,609.917l140.467-118.533
	c0.002,0.175,0.003,0.349,0.005,0.523c-229.242,288.926-87.502,121.32-699.721,818.565
	C604.483,1291.703,581.117,1322.909,1155.935,609.917z M1296.444,494.864c0.255,16.279,0.015,26.092,21.4,43.011l-183.863,161.748
	L1296.444,494.864z M1285.619,381.065l-87.979,41.918c0.085-0.162,33.202-63.224,33.288-63.386l3.971-15.883l14.767-21.062
	C1268.065,337.712,1278.813,358.067,1285.619,381.065z M1153.201,275.635l-9.79,30.746l-87.726,67.906l50.067-111.526
	C1122.852,266.617,1138.645,270.961,1153.201,275.635z M1103.892,262.348l-51.343,114.367l-0.067,0.052l-0.034,0.129
	L951.686,510.131l35.612-182.484l36.787-77.962C1051.004,252.41,1077.772,256.544,1103.892,262.348z M974.959,246.221
	l-32.254,118.025l-77.109,126.161l17.874-139.462c26.03-55.766,12.753-32.042,60.239-105.468
	C954.083,245.546,964.51,245.79,974.959,246.221z M941.492,245.466l-36.227,56.019l11.684-55.809
	C925.086,245.503,933.272,245.431,941.492,245.466z M773.887,258.78l-34.843,74.631l-12.245-65.8
	C741.584,264.438,757.345,261.46,773.887,258.78z M461.64,1307.764l-4.353-82.613l11.631-129.884l-1.24,176.267L461.64,1307.764z
	 M307.699,750.9l-72.304-91.861l-34.234-96.724l-0.901,0.319c7.484-6.047,14.723-12.392,21.621-19.112l69.162,116.994L307.699,750.9
	z M308.456,754.881c61.849,211.381,35.822,105.247,115.546,480.865L237.09,664.212L308.456,754.881z M383.551,423.861
	c5.308-3.284,10.654-6.553,16.03-9.802c5.056,75.472,4.676,68.541,4.503,70.168l-20.533-55.598V423.861z M421.745,426.953
	l50.918,135.84l-3.585,509.755l-12.485,139.423c-0.013-0.245-35.973-682.758-35.986-683.002l-15.065-40.793
	C406.235,481.65,404.016,490.629,421.745,426.953z M451.235,1271.798c-16.595-67.922-4.944,14.666-70.031-554.53l1.883-17.725
	l0.463,1.405c0-8.233-2.337,16.24,21.546-208.587l13.661,36.989C459.864,1309.552,456.993,1207.499,451.235,1271.798z
	 M456.11,1238.297l3.591,68.15l-7.094-29.034L456.11,1238.297z M450.72,1277.554l-2.393,26.718l-7.848-68.633L450.72,1277.554z
	 M380.3,725.786l54.957,480.609L361.37,903.979L380.3,725.786z M403.639,488.412L383.551,677.51V434.019L403.639,488.412z
	 M358.139,916.723L310.227,702.03l-17.366-216.843l-0.931,0.074c5.398-3.968,10.927-7.952,16.574-11.944l73.164,221.918
	L358.139,916.723z M359.41,922.428l1.378-12.967l76.159,311.721l9.52,83.258C424.425,1237.039,440.065,1302.436,359.41,922.428z
	 M441.852,1296.335c-7.252-16.336-5.249-10.21-8.781-26.849L441.852,1296.335z M452.092,1283.169
	c9.981,40.852,6.651,23.297,5.63,38.068c-0.031,3.031,1.904,5.657,1.873,8.688c0.056,2.408-0.143,4.842,0.286,7.244
	c0.878,5.053-0.255,10.237,0.822,15.285c0.286,3.815,0.199,7.667,0,11.495c-0.484-1-8.124-25.256-11.05-49.759
	C449.376,1311.866,449.445,1313.001,452.092,1283.169z M460.154,1316.168l0.096,0.394l0.678-0.1
	C460.664,1316.601,460.131,1316.408,460.154,1316.168z M470.945,1072.639l60.831-679.294l16.576-60.454
	c15.083-7.35,29.736-14.2,43.747-20.446c4.357,25.559,4.542-12.543-7.41,257.069l-115.061,690.324L470.945,1072.639z
	 M531.188,388.428l-5.644-44.206c6.929-3.506,13.792-6.921,20.572-10.238L531.188,388.428z M596.492,327.113l-2.634-15.451
	c3.072-1.364,6.111-2.696,9.117-4L596.492,327.113z M586.527,569.84l80.092-236.192l-5.694,167.182l-191.6,801.975
	C469.636,1258.695,456.562,1349.584,586.527,569.84z M668.693,327.609l29.094-53.215c8.619-2.191,17.697-4.33,27.187-6.389
	l12.713,68.315l-74.743,160.096L668.693,327.609z M670.337,320.709l10.089-41.658c4.784-1.355,9.752-2.697,14.886-4.022
	L670.337,320.709z M678.362,279.64c-14.876,61.425,0.659,11.619-91.52,283.457l10.283-231.98l8.15-24.449
	C641.329,291.135,661.999,284.338,678.362,279.64z M523.777,345.118l6.138,48.079l-58.81,656.725l3.427-487.192
	c0.095-0.438,39.769-183.689,39.864-184.128l-8.289-24.396C512.034,351.117,517.927,348.086,523.777,345.118z M504.431,355.081
	l8.03,23.632l-39.103,180.614l-50.763-135.425l7.817-28.075C455.089,381.542,480.03,367.829,504.431,355.081z M428.102,397.166
	l-22.394,80.428l-4.329-64.618C410.223,407.644,419.143,402.368,428.102,397.166z M380.498,425.754l1.186,3.21v260.358
	l-71.585-217.128C332.118,456.681,355.875,441.058,380.498,425.754z M291.046,485.914l17.325,216.33l42.944,192.468L310.211,754.23
	l-37.939-205.865l-0.155-47.413l-0.934,0.003C277.57,495.977,284.2,490.958,291.046,485.914z M270.253,501.68l0.141,43.197
	l-16.723-29.64l-0.813,0.459C258.417,511.07,264.224,506.393,270.253,501.68z M252.129,516.305l18.321,32.47l19.611,106.412
	l-66.684-112.802l-0.804,0.475C228.253,537.18,239.277,527.031,252.129,516.305z M199.506,563.237l32.29,91.231l-57.178-72.643
	C179.997,577.903,188.11,572.394,199.506,563.237z M162.172,590.888l35.509,156.328l-70.048-138.944
	C139.762,605.72,151.339,598.565,162.172,590.888z M125.725,608.635l66.11,131.133l-86.421-132.701
	C112.325,609.449,119.105,609.753,125.725,608.635z M111.391,619.664l88.067,135.229l226.883,511.101L111.391,619.664z
	 M201.171,754.151l-37.264-164.055l-0.91,0.207c3.722-2.655,7.356-5.359,10.893-7.945l-0.758,0.596l60.599,76.989
	c215.471,658.864,191.911,583.527,198.56,614.85L201.171,754.151z M438.556,1295.323l8.975,18.419
	c2.66,14.258,1.604,13.236-0.41,13.714c-0.867,0.206-1.846,0.551-2.737,0.581c-0.033-0.286,0.157-0.692,0.235-0.978
	c0.528-1.93,1.078,1.913-5.977-31.328C438.613,1295.595,438.584,1295.459,438.556,1295.323z M439.73,1535.384
	c-1.973,2.987-1.021,7.026-3.137,9.939c-1.83,1.139-3.939,1.749-5.738,2.956c-2.626,1.711-5.215,3.504-8.09,4.779
	c-1.655-9.476-0.799-7.823,8.489-16.791c3.034-2.589,4.831-8.457,10.169-11.874C440.612,1534.899,443.39,1527.762,439.73,1535.384z
	 M461.555,1378.43c-1.002,1.873-3.273,3.529-5.495,2.969c-10.524-1.939-17.442,9.856-21.421,10.723
	c1.027-3.249,0.23-6.64-1.319-9.572c-1.388,0.952-2.552,2.184-3.659,3.46c0.398-9.209,2.505-14.877,14.238-56.315
	c1.884-0.366,3.809-0.477,5.708-0.778c0.815,2.172,2.52,9.198,2.477,11.04C452.581,1345.067,461.761,1370.57,461.555,1378.43z
	 M462.078,1316.493l5.518-33.104c-0.174,24.767-0.055,30.022-0.787,36.355c-1.973,3.491-1.575,7.767-0.697,11.538
	c-0.118,4.474-2.055,9.261-2.366,13.735C461.563,1341.084,462.04,1321.004,462.078,1316.493z M513.956,1445.294
	c-1.55,6.858-5.545,12.789-9.578,18.421c-4.251,5.993-7.337,12.789-12.185,18.359c-1.562,1.88-3.261,3.647-4.761,5.582
	c-0.162-2.197-1.101-4.331-0.529-6.534c0.395-1.522-0.256-2.796-0.675-4.217c-0.751-2.547,0.069-1.601,1.732-2.844
	c1.271-0.95,0.358-2.958,1.251-4.266c2.309-3.062,7.008-2.651,9.111-5.893c1.425-1.699,1.693-4.45,4.008-5.284
	c1.27-0.809,3.454-1.108,3.522-2.95c0.199-2.384-0.398-4.817,0.212-7.151c1.195-2.421,3.236-4.319,4.444-6.721
	c1.326-3.41,2.01-7.804,5.769-9.416C516.308,1436.787,514.958,1441.043,513.956,1445.294z M536.958,1370.632
	c-1.083-3.803-2.141-7.68-4.307-11.028c-4.107-5.962-10.654-10.076-17.718-11.526c-9.6-1.744-18.12,10.805-19.548,15.166
	c-0.529,2.228-2.919,2.925-4.58,4.132c-2.576,1.4-3.69,4.263-5.184,6.622c-2.315,0.187-4.655,0.747-6.398,2.371
	c-1.319,1.344-0.665,0.235-13.386,0.317c0.019-3.205-0.268-6.448,0.436-9.59c0.722-2.334-1.357-4.282-1.083-6.597
	c0.143-6.031-0.423-12.104,0.647-18.073c0.342-2.906,1.182-5.738,1.332-8.657c0.181-3.106,2.589-5.495,2.794-8.57
	c2.146-32.117-33.285,122.29,192.778-823.937l75.533-161.789l6.445,34.634c-6.057,14.427,8.166-58.95-163.649,903.357
	l-17.334,61.469c-0.661,1.587-16.003,34.05-19.896,40.483c-0.89-3.485-2.328-6.821-2.825-10.393
	C539.659,1369.556,538.327,1370.141,536.958,1370.632z M596.746,1401.885c-0.834-0.425-4.272,4.164-6.572,15.665
	c-0.89-0.249-1.786-0.461-2.67-0.641c-0.517-1.462-1.599-3.143-3.367-2.969c-1.238-0.193-1.929,0.971-2.757,1.649
	c-7.281-2.047-8.259,0.178-18.627-2.645c-2.987-0.548-6.037,0.062-9.03-0.33c-1.419-0.622-2.62-1.643-4.051-2.197
	c-1.307-0.224-2.633-0.149-3.921-0.355c-6.287-5.04-5.24-7.761-5.134-11.893c0.585-0.156,1.17-0.299,1.767-0.43
	c-0.025-10.595,2.429-9.182,8.209-17.867c4.12-6.516,9.516-12.129,13.15-18.963c3.858,0.566,7.387,2.601,11.32,2.738
	c-0.454-0.734-0.691-1.749-1.655-1.879c-2.788-0.784-5.632-1.4-8.246-2.676c0.672-3.529,2.906-6.454,3.921-9.852
	c1.033-4.026,5.06-6.273,6.342-10.188c-0.2,0.16,3.908-5.99,3.908-5.99s11.286-12.854,11.286-12.854
	c-1.748,4.209-13.058,31.433-15.479,37.261C574.073,1360.042,571.699,1353.984,596.746,1401.885z M1127.447,707.859l191.891-168.811
	c6.698,5.223,4.925,3.883,8.365,7.085c-269.488,290.277-115.752,129.046-705.274,737.85
	C1165.862,665.076,1116.074,722.193,1127.447,707.859z M1128.006,763.979L1329.075,547.4c8.468,7.737,17.832,15.023,22.637,18.661
	L1128.006,763.979z"/>
</svg>
